<!--?xml version="1.0" standalone="no"?-->

<svg version="1.0" xmlns="http://www.w3.org/2000/svg" width="300.000000pt" height="225.000000pt" viewBox="0 0 300.000000 225.000000" preserveAspectRatio="xMidYMid meet">
<g transform="translate(0.000000,225.000000) scale(0.100000,-0.100000)" fill="#080808" stroke="none">
<path d="M1795 1450 c-27 -14 -79 -42 -115 -61 -36 -19 -170 -91 -298 -160
l-233 -124 161 -3 160 -2 0 -163 0 -162 22 35 c12 19 86 154 166 300 80 146
158 289 173 318 16 28 26 51 22 51 -5 -1 -30 -14 -58 -29z" id="node1" class="node"></path>
</g>
<g transform="translate(0.000000,225.000000) scale(0.100000,-0.100000)" fill="#A2A2A2" stroke="none">

</g>
</svg>